<?xml version="1.0" encoding="utf-8"?>
<!-- Generator: Adobe Illustrator 15.0.0, SVG Export Plug-In . SVG Version: 6.00 Build 0)  -->
<!DOCTYPE svg PUBLIC "-//W3C//DTD SVG 1.1//EN" "http://www.w3.org/Graphics/SVG/1.1/DTD/svg11.dtd">
<svg version="1.1" id="Layer_1" xmlns="http://www.w3.org/2000/svg" xmlns:xlink="http://www.w3.org/1999/xlink" x="0px" y="0px"
	 width="50px" height="50px" viewBox="0 0 50 50" enable-background="new 0 0 50 50" xml:space="preserve">
<path fill="#fff" d="M35.929,9.795l6.324,6.525l-6.324,6.477v-2.738h-9.412c0,0-1.506-0.082-2.599,0.695c-1.094,0.779-1.03,1.844-1.03,1.844
	s-1.465-3.68,0-7.123c1.406-3.305,5.196-2.939,5.196-2.939h7.845V9.795z M36.714,37.871c-0.037,1.287-3.122,2.334-6.974,2.334
	c-3.851,0-6.94-1.047-6.973-2.334c-0.029-1.148,0-2.916,0-2.916s2.081,1.939,6.973,1.75c4.975-0.195,6.974-1.75,6.974-1.75
	S36.746,36.758,36.714,37.871z M29.74,35.537c-3.851,0-6.973-1.045-6.973-2.334s3.122-2.334,6.973-2.334
	c3.852,0,6.974,1.045,6.974,2.334S33.592,35.537,29.74,35.537z M14.733,40.205c-3.852,0-6.942-1.047-6.974-2.334
	c-0.029-1.148,0-2.916,0-2.916s2.081,1.939,6.974,1.75c4.973-0.195,6.973-1.75,6.973-1.75s0.033,1.803,0,2.916
	C21.669,39.158,18.583,40.205,14.733,40.205z M14.733,35.871c-3.852,0-6.942-1.047-6.974-2.334c-0.029-1.15,0-2.918,0-2.918
	s2.081,1.941,6.974,1.752c4.973-0.195,6.973-1.752,6.973-1.752s0.033,1.805,0,2.918C21.669,34.824,18.583,35.871,14.733,35.871z
	 M14.733,31.203c-3.852,0-6.942-1.047-6.974-2.334c-0.029-1.148,0-2.918,0-2.918s2.081,1.941,6.974,1.75
	c4.973-0.193,6.973-1.75,6.973-1.75s0.033,1.807,0,2.918C21.669,30.156,18.583,31.203,14.733,31.203z M14.729,26.521
	c-3.85,0-6.97-1.043-6.97-2.328c0-1.287,3.12-2.328,6.97-2.328c3.848,0,6.969,1.041,6.969,2.328
	C21.698,25.479,18.577,26.521,14.729,26.521z"/>
</svg>
