<?xml version="1.0" encoding="utf-8"?>
<!-- Generator: Adobe Illustrator 15.0.0, SVG Export Plug-In . SVG Version: 6.00 Build 0)  -->
<!DOCTYPE svg PUBLIC "-//W3C//DTD SVG 1.1//EN" "http://www.w3.org/Graphics/SVG/1.1/DTD/svg11.dtd">
<svg version="1.1" id="Layer_1" xmlns="http://www.w3.org/2000/svg" xmlns:xlink="http://www.w3.org/1999/xlink" x="0px" y="0px"
	 width="50px" height="50px" viewBox="0 0 50 50" enable-background="new 0 0 50 50" xml:space="preserve">
<path fill="#fff" d="M36.73,10.379l6.324,6.527l-6.324,6.477v-2.74h-9.412c0,0-1.506-0.082-2.599,0.697c-1.094,0.777-1.03,1.842-1.03,1.842
	s-1.465-3.678,0-7.123c1.406-3.305,5.196-2.939,5.196-2.939h7.845V10.379z M17.16,34.281c0-0.342-0.054-0.643-0.159-0.902
	c-0.106-0.262-0.281-0.498-0.522-0.709s-0.553-0.406-0.935-0.586s-0.848-0.354-1.398-0.525c-0.947-0.301-1.807-0.615-2.58-0.945
	c-0.772-0.33-1.435-0.711-1.985-1.141c-0.551-0.432-0.978-0.938-1.282-1.514c-0.305-0.578-0.456-1.266-0.456-2.064
	c0-0.691,0.135-1.322,0.405-1.891c0.271-0.57,0.657-1.066,1.159-1.49c0.503-0.424,1.104-0.768,1.805-1.031
	c0.7-0.264,1.485-0.434,2.354-0.506v-2.613h2.319v2.648c0.831,0.098,1.584,0.297,2.261,0.6c0.676,0.301,1.251,0.691,1.725,1.172
	c0.474,0.479,0.838,1.047,1.094,1.701c0.256,0.656,0.385,1.391,0.385,2.205H17.16c0-0.977-0.239-1.707-0.718-2.191
	s-1.118-0.727-1.92-0.727c-0.435,0-0.81,0.055-1.123,0.164c-0.314,0.109-0.572,0.262-0.775,0.451
	c-0.203,0.191-0.353,0.418-0.449,0.678c-0.097,0.262-0.146,0.541-0.146,0.844c0,0.301,0.049,0.572,0.146,0.816
	s0.263,0.471,0.5,0.678c0.236,0.207,0.551,0.402,0.941,0.586c0.392,0.184,0.877,0.373,1.457,0.568
	c0.937,0.316,1.79,0.643,2.558,0.977c0.769,0.334,1.428,0.719,1.979,1.152c0.551,0.436,0.979,0.943,1.282,1.521
	c0.305,0.576,0.457,1.26,0.457,2.051c0,0.715-0.138,1.357-0.413,1.928s-0.665,1.062-1.167,1.477
	c-0.503,0.416-1.108,0.75-1.818,1.002c-0.711,0.252-1.5,0.414-2.37,0.488v2.43h-2.304v-2.418c-0.803-0.072-1.578-0.232-2.326-0.477
	c-0.749-0.244-1.413-0.596-1.993-1.055c-0.579-0.461-1.043-1.041-1.391-1.74c-0.349-0.699-0.522-1.537-0.522-2.514h4.188
	c0,0.576,0.089,1.059,0.269,1.445c0.179,0.387,0.417,0.695,0.717,0.928s0.641,0.395,1.022,0.488c0.381,0.094,0.77,0.141,1.166,0.141
	c0.454,0,0.853-0.053,1.195-0.158c0.344-0.105,0.631-0.252,0.862-0.439c0.232-0.188,0.406-0.41,0.522-0.666
	C17.102,34.861,17.16,34.582,17.16,34.281z M37.998,37.621c-0.037,1.289-3.123,2.334-6.974,2.334s-6.94-1.045-6.973-2.334
	c-0.029-1.148,0-2.918,0-2.918s2.079,1.943,6.973,1.752c4.974-0.195,6.974-1.752,6.974-1.752S38.029,36.51,37.998,37.621z
	 M31.024,35.287c-3.851,0-6.973-1.045-6.973-2.334s3.122-2.334,6.973-2.334s6.974,1.045,6.974,2.334S34.875,35.287,31.024,35.287z"
	/>
</svg>
