<?xml version="1.0" encoding="utf-8"?>
<!-- Generator: Adobe Illustrator 15.0.0, SVG Export Plug-In . SVG Version: 6.00 Build 0)  -->
<!DOCTYPE svg PUBLIC "-//W3C//DTD SVG 1.1//EN" "http://www.w3.org/Graphics/SVG/1.1/DTD/svg11.dtd">
<svg version="1.1" id="Layer_1" xmlns="http://www.w3.org/2000/svg" xmlns:xlink="http://www.w3.org/1999/xlink" x="0px" y="0px"
	 width="50px" height="50px" viewBox="0 0 50 50" enable-background="new 0 0 50 50" xml:space="preserve">
<path fill="#fff" d="M39.506,37.732h-5.002v5.002c0,0.552-0.447,1-1,1c0,0,0,0-0.002,0h-1c-0.553,0-1-0.447-1-1l0,0v-5.002h-5.004
	c-0.551,0-1-0.447-1-1v-1c0-0.552,0.449-1,1-1h5.004v-5c0-0.553,0.447-1,1-1h1c0.553-0.001,1.002,0.446,1.002,0.998
	c0,0.001,0,0.001,0,0.002v5h5.002c0.553,0,1,0.447,1.002,1l0,0v1c0,0.553-0.449,1-1,1C39.506,37.732,39.506,37.732,39.506,37.732z
	 M31.881,25.762V12.34H18.115v20.882h4.713c-0.217,0.819-0.328,1.663-0.332,2.511c0,1.234,0.234,2.41,0.645,3.502h-4.369
	c-1.803,0-3.279-1.425-3.279-3.164v-24.68c0-1.74,1.477-3.164,3.279-3.164h12.455c1.803,0,3.277,1.424,3.277,3.164v14.541
	c-0.658-0.134-1.33-0.201-2.002-0.201C32.293,25.73,32.088,25.75,31.881,25.762z"/>
</svg>
