<?xml version="1.0" encoding="utf-8"?>
<!-- Generator: Adobe Illustrator 15.0.0, SVG Export Plug-In . SVG Version: 6.00 Build 0)  -->
<!DOCTYPE svg PUBLIC "-//W3C//DTD SVG 1.1//EN" "http://www.w3.org/Graphics/SVG/1.1/DTD/svg11.dtd">
<svg version="1.1" id="Layer_1" xmlns="http://www.w3.org/2000/svg" xmlns:xlink="http://www.w3.org/1999/xlink" x="0px" y="0px"
	 width="50px" height="50px" viewBox="0 0 50 50" enable-background="new 0 0 50 50" xml:space="preserve">
<path fill="#fff" d="M38.161,10.379l6.324,6.525l-6.324,6.477v-2.738h-9.412c0,0-1.506-0.082-2.599,0.695c-1.094,0.779-1.03,1.844-1.03,1.844
	s-1.465-3.68,0-7.123c1.406-3.305,5.196-2.939,5.196-2.939h7.845V10.379z M24.235,34.562c-2.887-0.998-3.809-1.84-3.809-3.645
	c0-1.082,0.881-0.729,1.268-2.711c0.16-0.822,0.939-0.014,1.088-1.891c0-0.75-0.424-0.936-0.424-0.936s0.215-1.107,0.299-1.959
	c0.105-1.062-0.645-3.805-4.651-3.805c-4.006,0-4.757,2.742-4.651,3.805c0.084,0.852,0.299,1.959,0.299,1.959
	s-0.424,0.186-0.424,0.936c0.148,1.877,0.926,1.068,1.088,1.891c0.387,1.982,1.268,1.629,1.268,2.711
	c0,1.805-0.922,2.646-3.809,3.645C8.881,35.564,7,36.586,7,37.281v2.34h22.013v-2.34C29.013,36.586,27.132,35.564,24.235,34.562z"/>
</svg>
