<svg xmlns="http://www.w3.org/2000/svg" width="10" height="19">
    <path fill="#B2B2B2" fill-rule="evenodd" d="M5.994 3.148c.372.359.558.813.558 1.363 0 .4-.091.767-.273 1.1a5.295 5.295 0 0 1-.693.975c-.282.317-.583.634-.905.951a9.767 9.767 0 0 0-.904 1.025 5.417 5.417 0 0 0-.694 1.2c-.182.434-.272.925-.272 1.476 0 .167.008.346.024.537.017.192.042.372.075.538h2.576A1.976 1.976 0 0 1 5.462 12v-.287c0-.5.102-.95.309-1.351.207-.4.467-.779.781-1.137.313-.359.652-.709 1.016-1.051.363-.341.701-.704 1.015-1.087a5.79 5.79 0 0 0 .781-1.251c.206-.45.309-.958.309-1.525 0-.467-.074-.95-.223-1.45a3.514 3.514 0 0 0-.792-1.376C8.277 1.069 7.766.722 7.122.447 6.477.172 5.66.035 4.669.035c-.826 0-1.632.104-2.416.312a8.672 8.672 0 0 0-2.093.838l.842 2.326a7.542 7.542 0 0 1 1.66-.688 6.412 6.412 0 0 1 1.66-.213c.743 0 1.301.18 1.672.538zm-.31 11.528c-.38-.375-.85-.563-1.412-.563-.545 0-1.012.188-1.4.563-.388.375-.582.855-.582 1.438 0 .584.194 1.059.582 1.425.388.367.855.55 1.4.55.562 0 1.032-.183 1.412-.55.38-.366.57-.841.57-1.425 0-.583-.19-1.063-.57-1.438z"/>
</svg>
